<mxfile host="app.diagrams.net" agent="Mozilla/5.0 (Windows NT 10.0; Win64; x64) AppleWebKit/537.36 (KHTML, like Gecko) Chrome/129.0.0.0 Safari/537.36" version="24.7.16">
  <diagram name="ENUM Cadence" id="WPBtx2nX5N_1e5BUbv02">
    <mxGraphModel dx="2903" dy="927" grid="0" gridSize="10" guides="1" tooltips="1" connect="1" arrows="1" fold="1" page="0" pageScale="1" pageWidth="827" pageHeight="1169" background="none" math="0" shadow="0">
      <root>
        <mxCell id="0" />
        <mxCell id="1" parent="0" />
        <mxCell id="fvYGEYjKW4wfFffBnZSf-42" value="Investigate Existing Enum Implementation" style="whiteSpace=wrap;strokeWidth=2;fillColor=#dae8fc;strokeColor=#6c8ebf;" vertex="1" parent="1">
          <mxGeometry x="475" y="20" width="243" height="66" as="geometry" />
        </mxCell>
        <mxCell id="fvYGEYjKW4wfFffBnZSf-43" value="Identify Enum Data Structure" style="whiteSpace=wrap;strokeWidth=2;fillColor=#d5e8d4;strokeColor=#82b366;" vertex="1" parent="1">
          <mxGeometry x="239" y="136" width="198" height="66" as="geometry" />
        </mxCell>
        <mxCell id="fvYGEYjKW4wfFffBnZSf-44" value="Examine Enum Parsing Mechanism" style="whiteSpace=wrap;strokeWidth=2;fillColor=#d5e8d4;strokeColor=#82b366;" vertex="1" parent="1">
          <mxGeometry x="487" y="136" width="220" height="66" as="geometry" />
        </mxCell>
        <mxCell id="fvYGEYjKW4wfFffBnZSf-45" value="Analyze Type Checking for Enums" style="whiteSpace=wrap;strokeWidth=2;fillColor=#d5e8d4;strokeColor=#82b366;" vertex="1" parent="1">
          <mxGeometry x="897" y="146" width="250" height="66" as="geometry" />
        </mxCell>
        <mxCell id="fvYGEYjKW4wfFffBnZSf-46" value="Update Compiler Parser for String Raw Types" style="whiteSpace=wrap;strokeWidth=2;fillColor=#fff2cc;strokeColor=#d6b656;" vertex="1" parent="1">
          <mxGeometry x="468" y="252" width="257" height="66" as="geometry" />
        </mxCell>
        <mxCell id="fvYGEYjKW4wfFffBnZSf-47" value="Modify Type Checking for String Enum Validation" style="whiteSpace=wrap;strokeWidth=2;fillColor=#fff2cc;strokeColor=#d6b656;" vertex="1" parent="1">
          <mxGeometry x="901" y="262" width="241" height="66" as="geometry" />
        </mxCell>
        <mxCell id="fvYGEYjKW4wfFffBnZSf-48" value="New Enum Syntax - Enum with String Raw Type" style="whiteSpace=wrap;strokeWidth=2;fillColor=#e3c800;fontColor=#000000;strokeColor=#B09500;" vertex="1" parent="1">
          <mxGeometry x="162" y="352" width="242" height="66" as="geometry" />
        </mxCell>
        <mxCell id="fvYGEYjKW4wfFffBnZSf-49" value="Define Mapping Between String Enum and Raw Type" style="whiteSpace=wrap;strokeWidth=2;fillColor=#e3c800;fontColor=#000000;strokeColor=#B09500;" vertex="1" parent="1">
          <mxGeometry x="632" y="378" width="249" height="66" as="geometry" />
        </mxCell>
        <mxCell id="fvYGEYjKW4wfFffBnZSf-50" value="Modify Runtime to Handle String Enum Representation" style="whiteSpace=wrap;strokeWidth=2;fillColor=#d0cee2;strokeColor=#56517e;" vertex="1" parent="1">
          <mxGeometry x="-146" y="468" width="259" height="66" as="geometry" />
        </mxCell>
        <mxCell id="fvYGEYjKW4wfFffBnZSf-51" value="Implement Enum and String Conversion Functions" style="whiteSpace=wrap;strokeWidth=2;fillColor=#d0cee2;strokeColor=#56517e;" vertex="1" parent="1">
          <mxGeometry x="307" y="468" width="259" height="66" as="geometry" />
        </mxCell>
        <mxCell id="fvYGEYjKW4wfFffBnZSf-52" value="Create String Interning for Efficient Memory Usage" style="whiteSpace=wrap;strokeWidth=2;fillColor=#fff2cc;gradientColor=#ffd966;strokeColor=#d6b656;" vertex="1" parent="1">
          <mxGeometry x="-142" y="584" width="250" height="66" as="geometry" />
        </mxCell>
        <mxCell id="fvYGEYjKW4wfFffBnZSf-53" value="Optimize On-chain Storage to Minimize Gas Costs" style="whiteSpace=wrap;strokeWidth=2;fillColor=#f8cecc;gradientColor=#ea6b66;strokeColor=#b85450;" vertex="1" parent="1">
          <mxGeometry x="-143" y="700" width="252" height="66" as="geometry" />
        </mxCell>
        <mxCell id="fvYGEYjKW4wfFffBnZSf-54" value="Update ABI to Represent Enum as String" style="whiteSpace=wrap;strokeWidth=2;fillColor=#d0cee2;strokeColor=#56517e;" vertex="1" parent="1">
          <mxGeometry x="639" y="494" width="235" height="66" as="geometry" />
        </mxCell>
        <mxCell id="fvYGEYjKW4wfFffBnZSf-55" value="Frontend Integration with String Enum" style="whiteSpace=wrap;strokeWidth=2;fillColor=#fff2cc;gradientColor=#ffd966;strokeColor=#d6b656;" vertex="1" parent="1">
          <mxGeometry x="164" y="584" width="245" height="66" as="geometry" />
        </mxCell>
        <mxCell id="fvYGEYjKW4wfFffBnZSf-56" value="Write Unit Tests for Enum Parsing and Validation" style="whiteSpace=wrap;strokeWidth=2;fillColor=#e3c800;fontColor=#000000;strokeColor=#B09500;" vertex="1" parent="1">
          <mxGeometry x="900" y="378" width="244" height="66" as="geometry" />
        </mxCell>
        <mxCell id="fvYGEYjKW4wfFffBnZSf-57" value="Perform Integration Testing" style="whiteSpace=wrap;strokeWidth=2;fillColor=#fff2cc;gradientColor=#ffd966;strokeColor=#d6b656;" vertex="1" parent="1">
          <mxGeometry x="429" y="593" width="256" height="48" as="geometry" />
        </mxCell>
        <mxCell id="fvYGEYjKW4wfFffBnZSf-58" value="Run Gas Cost Analysis and Optimize Further" style="whiteSpace=wrap;strokeWidth=2;fillColor=#a0522d;fontColor=#ffffff;strokeColor=#6D1F00;" vertex="1" parent="1">
          <mxGeometry x="-131" y="816" width="244" height="66" as="geometry" />
        </mxCell>
        <mxCell id="fvYGEYjKW4wfFffBnZSf-59" value="" style="curved=1;startArrow=none;endArrow=block;exitX=0;exitY=0.91;entryX=0.5;entryY=0;rounded=0;" edge="1" parent="1" source="fvYGEYjKW4wfFffBnZSf-42" target="fvYGEYjKW4wfFffBnZSf-43">
          <mxGeometry relative="1" as="geometry">
            <Array as="points">
              <mxPoint x="338" y="111" />
            </Array>
          </mxGeometry>
        </mxCell>
        <mxCell id="fvYGEYjKW4wfFffBnZSf-60" value="" style="curved=1;startArrow=none;endArrow=block;exitX=0.5;exitY=1;entryX=0.5;entryY=0;rounded=0;" edge="1" parent="1" source="fvYGEYjKW4wfFffBnZSf-42" target="fvYGEYjKW4wfFffBnZSf-44">
          <mxGeometry relative="1" as="geometry">
            <Array as="points" />
          </mxGeometry>
        </mxCell>
        <mxCell id="fvYGEYjKW4wfFffBnZSf-61" value="" style="curved=1;startArrow=none;endArrow=block;exitX=1;exitY=0.68;entryX=0.5;entryY=0;rounded=0;" edge="1" parent="1" source="fvYGEYjKW4wfFffBnZSf-42" target="fvYGEYjKW4wfFffBnZSf-45">
          <mxGeometry relative="1" as="geometry">
            <Array as="points">
              <mxPoint x="773" y="133" />
            </Array>
          </mxGeometry>
        </mxCell>
        <mxCell id="fvYGEYjKW4wfFffBnZSf-62" value="" style="curved=1;startArrow=none;endArrow=block;exitX=0.5;exitY=1;entryX=0.5;entryY=0;rounded=0;" edge="1" parent="1" source="fvYGEYjKW4wfFffBnZSf-44" target="fvYGEYjKW4wfFffBnZSf-46">
          <mxGeometry relative="1" as="geometry">
            <Array as="points" />
          </mxGeometry>
        </mxCell>
        <mxCell id="fvYGEYjKW4wfFffBnZSf-63" value="" style="curved=1;startArrow=none;endArrow=block;exitX=0.5;exitY=1;entryX=0.5;entryY=0;rounded=0;" edge="1" parent="1" source="fvYGEYjKW4wfFffBnZSf-45" target="fvYGEYjKW4wfFffBnZSf-47">
          <mxGeometry relative="1" as="geometry">
            <Array as="points" />
          </mxGeometry>
        </mxCell>
        <mxCell id="fvYGEYjKW4wfFffBnZSf-64" value="" style="curved=1;startArrow=none;endArrow=block;exitX=0.17;exitY=1;entryX=0.5;entryY=0;rounded=0;" edge="1" parent="1" source="fvYGEYjKW4wfFffBnZSf-46" target="fvYGEYjKW4wfFffBnZSf-48">
          <mxGeometry relative="1" as="geometry">
            <Array as="points">
              <mxPoint x="438" y="330" />
              <mxPoint x="365" y="333" />
            </Array>
          </mxGeometry>
        </mxCell>
        <mxCell id="fvYGEYjKW4wfFffBnZSf-65" value="" style="curved=1;startArrow=none;endArrow=block;exitX=1;exitY=0.87;entryX=0.5;entryY=0;rounded=0;" edge="1" parent="1" source="fvYGEYjKW4wfFffBnZSf-46" target="fvYGEYjKW4wfFffBnZSf-49">
          <mxGeometry relative="1" as="geometry">
            <Array as="points" />
          </mxGeometry>
        </mxCell>
        <mxCell id="fvYGEYjKW4wfFffBnZSf-66" value="" style="curved=1;startArrow=none;endArrow=block;exitX=0;exitY=0.86;entryX=0.5;entryY=0;rounded=0;" edge="1" parent="1" source="fvYGEYjKW4wfFffBnZSf-48" target="fvYGEYjKW4wfFffBnZSf-50">
          <mxGeometry relative="1" as="geometry">
            <Array as="points">
              <mxPoint x="-17" y="443" />
            </Array>
          </mxGeometry>
        </mxCell>
        <mxCell id="fvYGEYjKW4wfFffBnZSf-67" value="" style="curved=1;startArrow=none;endArrow=block;exitX=0.86;exitY=1;entryX=0.5;entryY=0;rounded=0;" edge="1" parent="1" source="fvYGEYjKW4wfFffBnZSf-48" target="fvYGEYjKW4wfFffBnZSf-51">
          <mxGeometry relative="1" as="geometry">
            <Array as="points">
              <mxPoint x="437" y="443" />
            </Array>
          </mxGeometry>
        </mxCell>
        <mxCell id="fvYGEYjKW4wfFffBnZSf-68" value="" style="curved=1;startArrow=none;endArrow=block;exitX=0.5;exitY=1;entryX=0.5;entryY=0;rounded=0;" edge="1" parent="1" source="fvYGEYjKW4wfFffBnZSf-50" target="fvYGEYjKW4wfFffBnZSf-52">
          <mxGeometry relative="1" as="geometry">
            <Array as="points" />
          </mxGeometry>
        </mxCell>
        <mxCell id="fvYGEYjKW4wfFffBnZSf-69" value="" style="curved=1;startArrow=none;endArrow=block;exitX=0.5;exitY=1;entryX=0.5;entryY=0;rounded=0;" edge="1" parent="1" source="fvYGEYjKW4wfFffBnZSf-52" target="fvYGEYjKW4wfFffBnZSf-53">
          <mxGeometry relative="1" as="geometry">
            <Array as="points" />
          </mxGeometry>
        </mxCell>
        <mxCell id="fvYGEYjKW4wfFffBnZSf-70" value="" style="curved=1;startArrow=none;endArrow=block;exitX=0.5;exitY=1;entryX=0.5;entryY=0;rounded=0;" edge="1" parent="1" source="fvYGEYjKW4wfFffBnZSf-49" target="fvYGEYjKW4wfFffBnZSf-54">
          <mxGeometry relative="1" as="geometry">
            <Array as="points" />
          </mxGeometry>
        </mxCell>
        <mxCell id="fvYGEYjKW4wfFffBnZSf-71" value="" style="curved=1;startArrow=none;endArrow=block;exitX=0.17;exitY=1;entryX=0.5;entryY=0;rounded=0;" edge="1" parent="1" source="fvYGEYjKW4wfFffBnZSf-51" target="fvYGEYjKW4wfFffBnZSf-55">
          <mxGeometry relative="1" as="geometry">
            <Array as="points">
              <mxPoint x="287" y="559" />
            </Array>
          </mxGeometry>
        </mxCell>
        <mxCell id="fvYGEYjKW4wfFffBnZSf-72" value="" style="curved=1;startArrow=none;endArrow=block;exitX=0.5;exitY=1;entryX=0.5;entryY=0;rounded=0;" edge="1" parent="1" source="fvYGEYjKW4wfFffBnZSf-47" target="fvYGEYjKW4wfFffBnZSf-56">
          <mxGeometry relative="1" as="geometry">
            <Array as="points" />
          </mxGeometry>
        </mxCell>
        <mxCell id="fvYGEYjKW4wfFffBnZSf-73" value="" style="curved=1;startArrow=none;endArrow=block;exitX=0.83;exitY=1;rounded=0;entryX=0.341;entryY=0.07;entryDx=0;entryDy=0;entryPerimeter=0;" edge="1" parent="1" source="fvYGEYjKW4wfFffBnZSf-51" target="fvYGEYjKW4wfFffBnZSf-57">
          <mxGeometry relative="1" as="geometry">
            <Array as="points">
              <mxPoint x="564" y="555" />
            </Array>
            <mxPoint x="587" y="593" as="targetPoint" />
          </mxGeometry>
        </mxCell>
        <mxCell id="fvYGEYjKW4wfFffBnZSf-74" value="" style="curved=1;startArrow=none;endArrow=block;exitX=0.5;exitY=1;entryX=0.5;entryY=0;rounded=0;" edge="1" parent="1" source="fvYGEYjKW4wfFffBnZSf-53">
          <mxGeometry relative="1" as="geometry">
            <Array as="points" />
            <mxPoint x="-16.999999999999773" y="816" as="targetPoint" />
          </mxGeometry>
        </mxCell>
      </root>
    </mxGraphModel>
  </diagram>
</mxfile>
